<?xml version="1.0" encoding="UTF-8" standalone="no"?>
<svg xmlns="http://www.w3.org/2000/svg" width="800" height="800" viewBox="0 0 800 800">
  <!-- Light background -->
  <rect width="800" height="800" fill="#f0d9b5" />
  
  <!-- Dark squares -->
  <g fill="#b58863">
    <!-- Row 1 (a8-h8) -->
    <rect x="100" y="0" width="100" height="100" />
    <rect x="300" y="0" width="100" height="100" />
    <rect x="500" y="0" width="100" height="100" />
    <rect x="700" y="0" width="100" height="100" />
    
    <!-- Row 2 (a7-h7) -->
    <rect x="0" y="100" width="100" height="100" />
    <rect x="200" y="100" width="100" height="100" />
    <rect x="400" y="100" width="100" height="100" />
    <rect x="600" y="100" width="100" height="100" />
    
    <!-- Row 3 (a6-h6) -->
    <rect x="100" y="200" width="100" height="100" />
    <rect x="300" y="200" width="100" height="100" />
    <rect x="500" y="200" width="100" height="100" />
    <rect x="700" y="200" width="100" height="100" />
    
    <!-- Row 4 (a5-h5) -->
    <rect x="0" y="300" width="100" height="100" />
    <rect x="200" y="300" width="100" height="100" />
    <rect x="400" y="300" width="100" height="100" />
    <rect x="600" y="300" width="100" height="100" />
    
    <!-- Row 5 (a4-h4) -->
    <rect x="100" y="400" width="100" height="100" />
    <rect x="300" y="400" width="100" height="100" />
    <rect x="500" y="400" width="100" height="100" />
    <rect x="700" y="400" width="100" height="100" />
    
    <!-- Row 6 (a3-h3) -->
    <rect x="0" y="500" width="100" height="100" />
    <rect x="200" y="500" width="100" height="100" />
    <rect x="400" y="500" width="100" height="100" />
    <rect x="600" y="500" width="100" height="100" />
    
    <!-- Row 7 (a2-h2) -->
    <rect x="100" y="600" width="100" height="100" />
    <rect x="300" y="600" width="100" height="100" />
    <rect x="500" y="600" width="100" height="100" />
    <rect x="700" y="600" width="100" height="100" />
    
    <!-- Row 8 (a1-h1) -->
    <rect x="0" y="700" width="100" height="100" />
    <rect x="200" y="700" width="100" height="100" />
    <rect x="400" y="700" width="100" height="100" />
    <rect x="600" y="700" width="100" height="100" />
  </g>
</svg> 